<?xml version="1.0" standalone="no"?>
<!DOCTYPE svg PUBLIC "-//W3C//DTD SVG 20010904//EN"
 "http://www.w3.org/TR/2001/REC-SVG-20010904/DTD/svg10.dtd">
<svg version="1.0" xmlns="http://www.w3.org/2000/svg"
 width="512.000000pt" height="512.000000pt" viewBox="0 0 512.000000 512.000000"
 preserveAspectRatio="xMidYMid meet">
<metadata>
Created by potrace 1.14, written by Peter Selinger 2001-2017
</metadata>
<g transform="translate(0.000000,512.000000) scale(0.100000,-0.100000)"
fill="#000000" stroke="none">
<path d="M2239 5042 c-15 -26 -17 -27 -101 -26 l-86 2 -37 -102 c-21 -55 -44
-114 -51 -131 -13 -30 -56 -144 -76 -200 -6 -16 -17 -43 -24 -60 -7 -16 -41
-104 -75 -195 -34 -91 -67 -178 -74 -195 -8 -16 -79 -203 -160 -415 -81 -212
-173 -452 -205 -535 -74 -191 -167 -433 -195 -510 -32 -87 -44 -118 -55 -140
-5 -11 -97 -252 -205 -535 -108 -283 -200 -524 -205 -535 -8 -18 -113 -291
-175 -460 -35 -92 -164 -427 -174 -450 -5 -11 -14 -36 -21 -55 -7 -19 -18 -48
-25 -65 -6 -16 -17 -43 -23 -60 -13 -37 -99 -261 -112 -293 -21 -49 -40 -47
473 -45 265 1 500 2 522 2 l40 1 49 143 c27 78 54 153 59 167 6 14 11 27 11
30 3 13 79 227 87 245 5 11 22 58 38 105 34 97 107 305 176 495 26 72 52 147
57 168 l10 37 861 -2 861 -3 98 -260 c54 -143 137 -361 184 -485 47 -124 86
-229 88 -235 1 -5 10 -27 19 -49 9 -21 17 -41 17 -44 0 -12 112 -298 120 -306
9 -9 1026 -14 1035 -5 5 6 -21 77 -385 1019 -167 432 -309 803 -317 825 -7 22
-18 49 -23 60 -5 11 -58 148 -119 305 -60 157 -140 364 -177 460 -37 96 -75
195 -84 220 -26 68 -144 376 -210 545 -32 83 -99 258 -150 390 -110 289 -189
493 -200 520 -5 11 -32 81 -60 155 -28 74 -55 144 -59 155 -5 11 -19 47 -31
80 -12 33 -30 78 -40 100 -9 22 -23 58 -30 80 -7 22 -17 45 -22 51 -5 7 -41
12 -86 12 -42 0 -82 1 -88 1 -7 1 -15 12 -18 26 l-6 25 -303 0 -302 0 -16 -28z
m411 -1567 c56 -154 108 -293 115 -310 7 -16 16 -41 20 -55 3 -14 10 -34 15
-45 6 -11 32 -83 60 -160 28 -77 57 -154 65 -172 8 -17 15 -35 15 -39 0 -8 14
-46 82 -229 17 -44 39 -105 50 -135 11 -30 24 -64 28 -75 5 -11 21 -54 35 -95
15 -41 33 -92 41 -112 l13 -38 -643 0 -644 0 30 83 c16 45 33 91 38 102 4 11
15 43 25 70 9 28 20 59 25 70 10 23 65 174 258 705 250 686 263 722 267 718 1
-2 48 -129 105 -283z"/>
</g>
</svg>
